<?xml version="1.0" encoding="utf-8"?>
<!-- Generator: Adobe Illustrator 16.0.0, SVG Export Plug-In . SVG Version: 6.00 Build 0)  -->
<!DOCTYPE svg PUBLIC "-//W3C//DTD SVG 1.1//EN" "http://www.w3.org/Graphics/SVG/1.1/DTD/svg11.dtd">
<svg version="1.1" xmlns="http://www.w3.org/2000/svg" xmlns:xlink="http://www.w3.org/1999/xlink" x="0px" y="0px" width="1400px"
	 height="980px" viewBox="0 0 1400 980" enable-background="new 0 0 1400 980" xml:space="preserve">

<g id="OBJECTS">
	<g>
		<path fill="#88A4E2" d="M192,874h1128c0,0,168-497-329-527c-422.763-25.519-227-224-507-224C284.03,123-4,224,192,874z"/>
	</g>
	<g>
		<path fill="#96B1E0" d="M761,512c-338.492-203.928-539.861-53.749-631.478,57.413C136.465,654.373,156.108,754.972,192,874h1128
			c0,0,44.875-132.764,19.623-265.195C1232.133,658.857,1044.494,682.793,761,512z"/>
	</g>
	<g>
		<path fill="#9FC4D3" d="M430.759,701.229L430.759,701.229c19.492-2.113,33.58-19.628,31.467-39.119l-18.927-207.694l-70.586,7.652
			l18.927,207.693C393.752,689.254,411.267,703.342,430.759,701.229z"/>
		<path fill="#9FC4D3" d="M425,873l24,16l13-15l1.234-201.729c-2.113-19.492-19.627-33.58-39.12-31.468l0,0
			c-19.492,2.113-33.58,19.628-31.467,39.119L425,873z"/>
		<path fill="#CBE5F7" d="M472.218,451.498l-69.905-95.685l27.489-20.083c6.67-4.873,16.027-3.416,20.9,3.254l61.082,83.608
			c7.982,10.926,5.596,26.254-5.33,34.236l0,0C495.528,464.811,480.2,462.424,472.218,451.498z"/>
		
			<rect x="375.171" y="301.683" transform="matrix(0.9941 0.1088 -0.1088 0.9941 37.2548 -41.3668)" fill="#AEC6D3" width="45" height="38"/>
		<path fill="#F7F7F7" d="M483.622,376.366l-32.92-37.382c-4.873-6.67-14.23-8.126-20.9-3.254l-27.489,20.083l35.423,53.757
			C437.736,409.57,475.169,407.632,483.622,376.366z"/>
		<path fill="#CBE5F7" d="M593.011,505.537l-109.024-46.434c-12.449-5.302-18.243-19.692-12.94-32.141l0,0
			c5.302-12.449,19.692-18.243,32.141-12.94l109.023,46.434L593.011,505.537z"/>
		<path fill="#CBE5F7" d="M644.85,446.713c1.426-0.522,3.24-0.958,4.288,0.141c0.913,0.958,0.649,2.508,0.235,3.765
			c-1.036,3.144-2.648,6.096-4.731,8.668c-0.867,1.07-1.879,2.29-1.634,3.646c0.212,1.171,1.294,1.954,2.302,2.588
			c4.699,2.956,9.698,5.435,14.896,7.387c6.007,2.256,12.782,4.176,16.316,9.532c5.15,7.804,0.392,18.65-6.687,24.756
			c-9.728,8.392-23.199,11.549-36.017,10.683c-12.817-0.866-25.114-5.417-36.708-10.949c-2.859-1.364-6-3.171-6.686-6.264
			c-0.287-1.291-0.088-2.635,0.111-3.942c0.98-6.432,1.983-12.943,4.527-18.931C602.976,459.164,627.696,453.002,644.85,446.713z"/>
		<path fill="#BFDEEF" d="M346.839,701.867L346.839,701.867c19.556,1.408,36.55-13.302,37.959-32.857L410,462l-87.908-6.325
			l-8.11,208.232C312.573,683.463,327.283,700.458,346.839,701.867z"/>
		<path fill="#BFDEEF" d="M277.232,867.189l20.19,17.359l17.573-13.122l66.98-186.141c4.625-19.053-7.071-38.247-26.124-42.873l0,0
			c-19.053-4.625-38.248,7.071-42.873,26.124L277.232,867.189z"/>
		<path fill="#FFFFFF" d="M446.111,466.318c-9.012-0.986-18.024-1.973-27.037-2.959c-22.107-2.42-44.215-4.84-66.323-7.26
			c-7.793-0.853-15.856-1.198-23.575-2.581c-7.919-1.418-6.031-7.234-3.726-14.115c2.747-8.199,7.653-15.514,10.046-23.853
			c5.231-18.23-2.658-36.812-2.157-55.202c0.085-3.133,5.536-38.558,4.868-38.631c28.249,3.093,56.498,6.185,84.747,9.277
			c7.576,0.829,19.585-0.229,22.963,8.227c2.6,6.508,3.572,11.983,8.833,17.228c1.41,1.405,2.961,2.688,4.148,4.287
			c2.056,2.768,2.859,6.271,3.202,9.703c0.686,6.852-0.522,13.241-2.606,19.731c-2.003,6.237-6.297,10.873-9.216,16.705
			c-5.295,10.576-4.827,22.783-3.14,34.174c0.798,5.39,1.281,9.003,0.234,14.239C446.652,458.887,446.511,462.668,446.111,466.318z"
			/>
		<g>
			<path fill="#6166AA" d="M368.847,325.072l39.395,78.251c0,0,22.445-57.729,19.381-71.229c-0.058-0.256-0.136-0.513-0.222-0.77
				c-1.575-0.093-3.083-0.181-4.446-0.331C404.918,329.021,386.882,327.046,368.847,325.072z"/>
		</g>
		<path fill="#E5E5E5" d="M368.524,325.037c0,0,32.482,43.292,39.717,78.287c0,0-34.945-29.981-42.042-47.859l6.167-10.391
			l-11.058-9.258C361.309,335.815,359.632,323.561,368.524,325.037z"/>
		<path fill="#E5E5E5" d="M425.24,330.742c-0.499-0.034-16.89,71.587-16.89,71.587s28.428-39.139,28.195-46.207l-6.088-8.714
			l7.502-4.208C437.96,343.201,437.223,331.551,425.24,330.742z"/>
		<path fill="#AEC6D3" d="M386.365,327.477c-0.761,0.674,13.509,23.626,13.509,23.626l16.365-20.843
			c-9.781-1.07-19.562-2.141-29.343-3.212C386.719,327.191,386.538,327.323,386.365,327.477z"/>
		<g>
			<path fill="#7D84BA" d="M375.305,318.234c1-0.033,11.385,6.276,22.552,14.54l-10.579,13.932c0,0-20.128-18.299-18.699-22.167
				C368.579,324.54,368.237,318.466,375.305,318.234z"/>
		</g>
		<g>
			<path fill="#7D84BA" d="M402.718,334.312c0.994,0.109,17.129-9.442,17.129-9.442s7.265,2.556,5.727,7.417
				c0,0-5.834,11.936-16.427,16.812L402.718,334.312z"/>
		</g>
		<path fill="#CBE5F7" d="M299.913,437.375l54.445-97.793l-10.634-14.89c-11.636-7.465-27.121-4.083-34.585,7.553l-50.468,78.672
			c-7.306,11.389-3.996,26.544,7.393,33.85l0,0C277.451,452.073,292.606,448.763,299.913,437.375z"/>
		<path fill="#FFFFFF" d="M444,459c0,0-91.52-21.561-124.01-5.53c-1.023,0.505-18.49,52.03-11.49,118.03
			c0,0,4.579,1.176,12.594,2.648c2.867-9.944,6.406-22.459,6.406-23.648l6.085,25.693c27.93,4.042,75.421,7.501,122.915-4.693
			C456.5,571.5,458.5,511.5,444,459z"/>
		<path fill="#FFFFFF" d="M329.602,395.721l34.295-58.088l-20.174-12.941c-11.636-7.465-27.121-4.083-34.585,7.553l-24.313,31.413
			C284.825,363.658,298.118,389.257,329.602,395.721z"/>
		<g>
			<path fill="#96BEE2" d="M417.881,540.342l-99.028-33.094c-5.785-1.934-8.907-8.19-6.974-13.975l45.123-135.022
				c1.933-5.785,8.19-8.907,13.975-6.974l99.028,33.094c5.785,1.933,8.907,8.19,6.974,13.975l-45.123,135.022
				C429.923,539.153,423.666,542.275,417.881,540.342z"/>
			<path fill="#87AECC" d="M411.768,529.407l-81.457-27.222c-7.239-2.419-11.146-10.249-8.728-17.488l38.017-113.758
				c2.419-7.239,10.249-11.146,17.488-8.727l81.457,27.222c7.239,2.419,11.146,10.249,8.728,17.488L429.256,520.68
				C426.837,527.919,419.007,531.826,411.768,529.407z"/>
			<g>
				<path fill="#363B72" d="M435.551,377.303l-35.194-11.761c-1.988-0.664-3.061-2.814-2.396-4.802l0,0
					c0.665-1.988,2.814-3.061,4.802-2.396l35.193,11.761c1.988,0.664,3.061,2.814,2.396,4.802l0,0
					C439.688,376.895,437.539,377.967,435.551,377.303z"/>
			</g>
		</g>
		<path fill="#CBE5F7" d="M380.329,488.291l-110.78-39.356c-12.664-4.765-19.068-18.894-14.303-31.558l0,0
			c4.765-12.665,18.894-19.068,31.558-14.303l110.909,41.729L380.329,488.291z"/>
		<path fill="#CBE5F7" d="M429.735,429.678c1.402-0.583,3.196-1.096,4.29-0.042c0.953,0.918,0.756,2.478,0.396,3.751
			c-0.901,3.185-2.385,6.204-4.356,8.863c-0.82,1.106-1.78,2.368-1.477,3.712c0.262,1.161,1.377,1.897,2.411,2.488
			c4.821,2.752,9.922,5.015,15.198,6.743c5.344,1.75,13.418,2.639,12.096,10.102c-0.362,2.043-1.232,3.969-1.606,6.01
			c-0.654,3.568,0.206,7.45-1.34,10.732c-1.646,3.494-5.653,5.454-7.178,9.002c-0.439,1.022-0.659,2.153-1.3,3.063
			c-0.666,0.944-1.708,1.542-2.735,2.072c-19.217,9.938-40.713,3.711-59.521-4.294c-2.915-1.24-6.129-2.912-6.948-5.972
			c-0.341-1.278-0.201-2.629-0.058-3.944c0.705-6.468,1.428-13.016,3.713-19.107C388.432,443.908,412.867,436.695,429.735,429.678z"
			/>
		<path fill="#CBE5F7" d="M439.426,284.008c-0.261,2.556-0.816,5.12-1.692,7.648c-2.982,8.614-6.046,17.383-11.52,24.672
			c-0.593,0.789-1.225,1.571-2.04,2.129c-1.243,0.853-2.793,1.108-4.294,1.25c-7.455,0.705-14.426-1.071-21.094-4.289
			c-8.648-4.174-18.996-6.819-23.109-16.572c-1.183-2.805-1.663-5.855-1.947-8.886c-0.925-9.865,0.139-19.913,3.111-29.364
			c3.66-11.641,20.705-16.381,31.584-15.19C427.881,247.536,441.304,265.596,439.426,284.008z"/>
		<path fill="#1F2242" d="M432.872,270.213c0,0-1.85,16.899-34.763,14.302c0,0-11.87,34.916-22.514,31.061
			c-0.307-0.111-27.664-50.549,5.338-67.144c29.119-14.642,65.92-4.855,58.484,28.615
			C439.418,277.047,436.195,276.613,432.872,270.213z"/>
		<path fill="#FFFFFF" d="M374.276,252.89c0,0,28.272,9.228,57.819-3.257l-12.763-21.141c0,0-31.716-13.532-52.221,8.367
			C367.111,236.859,368.664,241.053,374.276,252.89z"/>
		<path fill="none" stroke="#000000" stroke-miterlimit="10" d="M426.942,290.442c-0.232,2.184,0.333,4.444,1.565,6.262
			c0.209,0.309,0.447,0.677,0.312,1.024c-0.068,0.176-0.221,0.303-0.372,0.417c-0.979,0.737-2.13,1.245-3.335,1.471"/>
		<path fill="none" stroke="#000000" stroke-miterlimit="10" d="M418.307,308.2c0.652,1.394,2.094,2.342,3.619,2.548
			s3.1-0.282,4.348-1.183"/>
		<path fill="none" stroke="#000000" stroke-miterlimit="10" d="M414.987,287.755c2.423-1.012,5.442-0.37,7.244,1.541"/>
		<path fill="none" stroke="#000000" stroke-miterlimit="10" d="M430.781,290.155c1.672-0.57,3.514-0.63,5.22-0.171
			c0.207,0.055,0.445,0.154,0.486,0.364"/>
		<path fill="#CBE5F7" d="M388.783,280.753c-1.175,0.739-1.933,2.025-2.262,3.374c-0.33,1.349-0.271,2.763-0.096,4.14
			c0.325,2.545,1.072,5.102,2.635,7.137c1.563,2.034,4.044,3.475,6.606,3.326c0.661-0.038,2.205-7.009,2.426-7.873
			c0.394-1.536,0.906-3.156,0.484-4.741C397.593,282.413,392.551,278.382,388.783,280.753z"/>
		<path fill="#1F2242" d="M324.726,873.355c0.31,0.199,0.614,0.385,0.909,0.551c1.829,1.029,3.318,2.382,4.903,3.753
			c3.51,3.037,7.02,6.073,10.53,9.11c4.952,4.284,9.904,8.568,14.855,12.853l-88.082-11.823c0.454-4.102,0.909-8.203,1.363-12.305
			c0.323-2.913,0.614-5.832,0.969-8.741c0.486-3.994,2.607-4.549,6.772-3.932c4.424,0.656,7.002,5.137,9.816,8.613
			c2.775,3.427,6.975,6.394,11.296,5.511c3.584-0.731,6.139-3.866,9.412-5.501c2.503-1.251,5.35-1.586,8.131-1.901
			c0.884-0.101,1.793-0.199,2.65,0.039C320.361,870.168,322.682,872.045,324.726,873.355z"/>
		<path fill="#1F2242" d="M473.886,874.831c0.33,0.163,0.652,0.313,0.964,0.446c1.933,0.818,3.563,1.997,5.292,3.183
			c3.827,2.627,7.653,5.253,11.48,7.88c5.398,3.705,10.797,7.41,16.196,11.115l-88.852-1.927c-0.005-4.127-0.011-8.253-0.017-12.38
			c-0.004-2.932-0.04-5.864-0.012-8.795c0.038-4.023,2.084-4.812,6.292-4.662c4.469,0.159,7.531,4.324,10.715,7.464
			c3.14,3.098,7.645,5.576,11.84,4.218c3.48-1.127,5.67-4.526,8.74-6.517c2.349-1.522,5.14-2.173,7.869-2.797
			c0.867-0.198,1.76-0.397,2.638-0.257C469.192,872.15,471.708,873.757,473.886,874.831z"/>
	</g>
	<g>
		<g>
			<rect x="582.691" y="746.365" fill="#D8778D" width="96.252" height="96.252"/>
		</g>
		<g>
			<rect x="554.289" y="689.561" fill="#BF4F64" width="153.057" height="96.253"/>
		</g>
		<g>
			<path fill="#A0404E" d="M720.638,730.586H539.419c-12.703,0-23-10.297-23-23v-33.804h227.218v33.804
				C743.638,720.289,733.34,730.586,720.638,730.586z"/>
		</g>
		<g>
			<path fill="#823141" d="M802.809,689.561H458.826c-16.122,0-29.191-13.069-29.191-29.19l0,0
				c0-16.122,13.069-29.191,29.191-29.191h343.983c16.122,0,29.191,13.069,29.191,29.191l0,0
				C832,676.491,818.931,689.561,802.809,689.561z"/>
		</g>
		<g>
			<path fill="#A0404E" d="M743.638,901H516.419v-26.006c0-24.853,20.147-45,45-45h137.218c24.853,0,45,20.147,45,45V901z"/>
		</g>
		<g>
			
				<rect x="593.737" y="669.048" transform="matrix(0.866 0.5 -0.5 0.866 463.7149 -203.2247)" fill="#823141" width="34.714" height="189.348"/>
		</g>
		<g>
			
				<rect x="385.453" y="669.048" transform="matrix(0.866 0.5 -0.5 0.866 435.8182 -99.086)" fill="#823141" width="34.714" height="189.348"/>
		</g>
		<g>
			<path fill="#823141" d="M589.12,874.176H330.11c-6.907,0-12.506-5.6-12.506-12.507v-14.455c0-6.907,5.599-12.507,12.506-12.507
				h259.01c6.907,0,12.506,5.6,12.506,12.507v14.455C601.626,868.576,596.027,874.176,589.12,874.176z"/>
		</g>
		<g>
			<path fill="#A0404E" d="M734.833,382h-94.667C599.206,382,566,415.206,566,456.167v175.012h243V456.167
				C809,415.206,775.795,382,734.833,382z"/>
		</g>
		<g>
			<path fill="#BF4F64" d="M755,457.22c0-40.961-33.206-74.167-74.167-74.167h-53.072C592.709,388.958,566,419.435,566,456.167
				v175.012h189V457.22z"/>
		</g>
	</g>
	<g>
		<path fill="#1F2242" d="M1160.049,554.634H849.021c-9.484,0-17.173-7.688-17.173-17.173l0,0c0-9.484,7.688-17.174,17.173-17.174
			h311.027c9.484,0,17.173,7.689,17.173,17.174l0,0C1177.222,546.945,1169.533,554.634,1160.049,554.634z"/>
		<path fill="#1F2242" d="M1160.049,895.555H849.021c-9.484,0-17.173-7.688-17.173-17.173l0,0c0-9.484,7.688-17.173,17.173-17.173
			h311.027c9.484,0,17.173,7.688,17.173,17.173l0,0C1177.222,887.866,1169.533,895.555,1160.049,895.555z"/>
		<rect x="856.019" y="554.634" fill="#BFDEEF" width="288.765" height="306.575"/>
		<rect x="870.396" y="569.899" fill="#B8D7F2" width="260.009" height="276.044"/>
		<polygon fill="#9AC6E8" points="1130.405,569.899 870.396,569.899 1130.405,845.943 		"/>
		<line fill="none" stroke="#FFFFFF" stroke-miterlimit="10" x1="1000.401" y1="569.899" x2="1000.401" y2="845.943"/>
		<path fill="#1F2242" d="M1019.207,720.006h-3.266c-3.313,0-6-2.686-6-6v-32.522c0-3.314,2.687-6,6-6h3.266c3.313,0,6,2.686,6,6
			v32.522C1025.207,717.32,1022.521,720.006,1019.207,720.006z"/>
		<path fill="#1F2242" d="M984.86,720.006h-3.266c-3.313,0-6-2.686-6-6v-32.522c0-3.314,2.687-6,6-6h3.266c3.313,0,6,2.686,6,6
			v32.522C990.86,717.32,988.174,720.006,984.86,720.006z"/>
		<path fill="#B8D7F2" d="M1064.622,520.287H926.003c-8.441,0-15.284-6.843-15.284-15.284v-97.932h169.188v97.932
			C1079.907,513.444,1073.063,520.287,1064.622,520.287z"/>
		<path fill="#FFFFFF" d="M1060.805,513.927H929.82c-5.3,0-9.597-4.297-9.597-9.597v-81.301c0-5.301,4.297-9.598,9.597-9.598
			h130.984c5.301,0,9.598,4.297,9.598,9.598v81.301C1070.402,509.63,1066.105,513.927,1060.805,513.927z"/>
		<path fill="#1F2242" d="M1081.815,390.534H911.354c-4.566,0-8.269,3.702-8.269,8.269l0,0c0,4.566,3.702,8.269,8.269,8.269h170.461
			c4.566,0,8.269-3.702,8.269-8.269l0,0C1090.084,394.236,1086.382,390.534,1081.815,390.534z"/>
		<g>
			<path fill="#BF4F64" d="M1027.539,456.683h-19.93c-1.521,0-2.756-1.234-2.756-2.756v-19.93c0-1.522-1.234-2.756-2.756-2.756
				h-8.481c-1.521,0-2.756,1.234-2.756,2.756v19.93c0,1.522-1.234,2.756-2.756,2.756h-19.93c-1.522,0-2.757,1.234-2.757,2.756v8.481
				c0,1.522,1.234,2.756,2.757,2.756h19.93c1.521,0,2.756,1.234,2.756,2.756v19.929c0,1.522,1.234,2.757,2.756,2.757h8.481
				c1.521,0,2.756-1.234,2.756-2.757v-19.929c0-1.522,1.234-2.756,2.756-2.756h19.93c1.522,0,2.756-1.234,2.756-2.756v-8.481
				C1030.295,457.917,1029.062,456.683,1027.539,456.683z"/>
		</g>
	</g>
	<g>
		<g>
			<path fill="#CBE5F7" d="M775.713,587.198h-49.43c-2.642,0-4.783-2.142-4.783-4.783s2.142-4.784,4.783-4.784h49.43
				c24.617,0,44.645-20.027,44.645-44.646V54.641c0-2.642,2.143-4.783,4.784-4.783s4.783,2.142,4.783,4.783v478.344
				C829.925,562.878,805.605,587.198,775.713,587.198z"/>
		</g>
		<g>
			<path fill="#404589" d="M947.889,67.397H766.173c-4.418,0-8-3.582-8-8v-9.512c0-4.418,3.582-8,8-8h181.716c4.418,0,8,3.582,8,8
				v9.512C955.889,63.815,952.307,67.397,947.889,67.397z"/>
		</g>
		<g>
			<rect x="841.086" y="41.886" fill="#404589" width="31.89" height="803.618"/>
		</g>
		<g>
			<rect x="726.283" y="845.504" fill="#404589" width="266.278" height="30.295"/>
		</g>
		<circle fill="#1F2242" cx="763.754" cy="875.002" r="29.498"/>
		<g>
			<circle fill="#363B72" cx="763.754" cy="875.002" r="21.525"/>
		</g>
		<circle fill="#1F2242" cx="948.714" cy="875.002" r="29.498"/>
		<g>
			<circle fill="#363B72" cx="948.714" cy="875.002" r="21.525"/>
		</g>
		<rect x="841.086" y="92.909" fill="#6166AA" width="64.576" height="7.973"/>
		<rect x="841.086" y="123.204" fill="#6166AA" width="64.576" height="7.972"/>
		<path fill="#6166AA" d="M873,156.688h-55.014c-2.201,0-3.986-1.785-3.986-3.986l0,0c0-2.201,1.785-3.986,3.986-3.986H873V156.688z
			"/>
		<rect x="900.082" y="84.937" fill="#6166AA" width="9.566" height="58.996"/>
		<path opacity="0.36" fill="#FFFFFF" d="M961.707,294.611h-56.82c-11.46,0-20.75-9.29-20.75-20.75V150.054
			c0-6.903,5.597-12.5,12.5-12.5h73.32c6.903,0,12.5,5.597,12.5,12.5v123.807C982.457,285.321,973.167,294.611,961.707,294.611z"/>
		<path fill="#E2748C" d="M965.447,203.832c-5.52,0.464-10.704,2.716-16.024,4.262c-10.251,2.979-21.255,3.327-31.674,1.002
			c-6.791-1.515-13.365-4.146-20.295-4.766c-3.11-0.278-6.424-0.088-9.486,0.792v58.874c0,14.633,11.862,26.495,26.495,26.495
			h37.668c14.633,0,26.495-11.862,26.495-26.495v-58.905C974.244,204.251,969.857,203.461,965.447,203.832z"/>
		<path fill="#CBE5F7" d="M937.538,143.932h-4.756c-2.209,0-4-1.791-4-4V39.507c0-2.209,1.791-4,4-4h4.756c2.21,0,4,1.791,4,4
			v100.425C941.538,142.142,939.748,143.932,937.538,143.932z"/>
	</g>
	<g>
		<rect x="1071.444" y="192.568" fill="#B8D7F2" width="117.558" height="166.163"/>
		<line fill="none" stroke="#1F2242" stroke-miterlimit="10" x1="1079.356" y1="210.654" x2="1118.919" y2="210.654"/>
		<line fill="none" stroke="#1F2242" stroke-miterlimit="10" x1="1079.922" y1="224.219" x2="1168.09" y2="224.219"/>
		<line fill="none" stroke="#1F2242" stroke-miterlimit="10" x1="1080.487" y1="237.783" x2="1168.655" y2="237.783"/>
		<line fill="none" stroke="#1F2242" stroke-miterlimit="10" x1="1081.052" y1="251.347" x2="1169.221" y2="251.347"/>
		<line fill="none" stroke="#1F2242" stroke-miterlimit="10" x1="1081.617" y1="264.912" x2="1169.785" y2="264.912"/>
		<line fill="none" stroke="#1F2242" stroke-miterlimit="10" x1="1082.183" y1="278.476" x2="1170.351" y2="278.476"/>
		<rect x="1081.617" y="292.041" fill="#9AC6E8" width="56.519" height="56.518"/>
		<rect x="1147.178" y="165.44" fill="none" stroke="#FFFFFF" stroke-miterlimit="10" width="67.822" height="68.952"/>
		<line fill="none" stroke="#FFFFFF" stroke-miterlimit="10" x1="1147.178" y1="234.392" x2="1215" y2="165.44"/>
	</g>
	<g>
		<path fill="#B8D7F2" d="M593.672,551.937l44.856-109.682l-16.746-6.848c-15.8-6.462-33.846,1.108-40.308,16.908l-33.156,81.074
			c-5.122,12.523,0.878,26.829,13.403,31.951l0,0C574.245,570.461,588.55,564.461,593.672,551.937z"/>
		<path fill="#6166AA" d="M616.5,501.5l22.028-59.246l-16.746-6.848c-15.8-6.462-33.846,1.108-40.308,16.908L565.5,480.5
			C565.5,480.5,587.5,506.5,616.5,501.5z"/>
		<path fill="#B8D7F2" d="M452.199,573.541l118.494-1.191c13.53-0.136,24.388-11.215,24.252-24.745l0,0
			c-0.136-13.53-11.215-24.389-24.745-24.253l-118.494,1.192L452.199,573.541z"/>
		<g>
			<path fill="#363B72" d="M478.286,617.107L478.286,617.107c-4.707-19.032,6.906-38.277,25.938-42.984l184.45-40.251l17.046,68.924
				l-184.45,40.251C502.237,647.754,482.993,636.141,478.286,617.107z"/>
		</g>
		<rect x="645.5" y="406.5" fill="#AACCE5" width="45" height="38"/>
		<g>
			<path fill="#363B72" d="M479.488,809.875l-67.281-22.679l63.96-188.621c6.263-18.579,26.4-28.563,44.979-22.301l0,0
				c18.579,6.263,28.563,26.4,22.301,44.979L479.488,809.875z"/>
		</g>
		<g>
			<rect x="609" y="433" fill="#6166AA" width="123" height="132"/>
		</g>
		<polygon fill="#1F2242" points="411.333,787.055 361.23,804.104 472.721,832.789 481.612,801.262 		"/>
		<g>
			<path fill="#404589" d="M570.286,630.107L570.286,630.107c-4.708-19.032,6.906-38.277,25.938-42.984l134.45-33.251l3.266,13.207
				c7.61,30.771-11.165,61.886-41.937,69.496l-78.733,19.472C594.237,660.754,574.993,649.141,570.286,630.107z"/>
		</g>
		<g>
			<path fill="#404589" d="M566.488,824.875l-67.281-22.679l63.96-188.621c6.263-18.579,26.4-28.563,44.979-22.301l0,0
				c18.579,6.263,28.563,26.4,22.301,44.979L566.488,824.875z"/>
		</g>
		<polygon fill="#1F2242" points="498.333,802.055 448.23,819.104 559.721,847.789 568.612,816.262 		"/>
		<path fill="#B8D7F2" d="M426.808,499.36c-1.117-1.028-2.626-2.125-4.015-1.51c-1.21,0.536-1.56,2.068-1.658,3.389
			c-0.245,3.301,0.114,6.646,1.055,9.819c0.392,1.32,0.861,2.834,0.115,3.993c-0.644,1.001-1.943,1.311-3.117,1.511
			c-5.473,0.933-11.04,1.311-16.588,1.126c-6.413-0.214-13.407-1.031-18.721,2.564c-7.743,5.24-7.498,17.081-3.292,25.432
			c5.777,11.474,17.016,19.546,29.189,23.648c12.174,4.104,25.276,4.603,38.104,3.928c3.163-0.167,6.756-0.635,8.574-3.229
			c0.759-1.083,1.089-2.4,1.406-3.685c1.555-6.318,3.12-12.717,3.06-19.224C460.733,526.884,440.25,511.733,426.808,499.36z"/>
		<path fill="#B8D7F2" d="M745.629,552.366L716,442l11.608-8.159c16.245-5.081,33.533,3.97,38.614,20.215l26.172,83.683
			c4.039,12.914-3.156,26.657-16.07,30.696l0,0C763.41,572.475,749.667,565.28,745.629,552.366z"/>
		<path fill="#6166AA" d="M728.5,504.5l-18.243-65.232l17.352-5.427c16.245-5.081,33.533,3.97,38.614,20.215L781.5,487.5
			C781.5,487.5,751.5,516.5,728.5,504.5z"/>
		<path fill="#B8D7F2" d="M653.697,587.498l117.955-11.356c13.469-1.297,23.336-13.267,22.039-26.735l0,0
			c-1.297-13.469-13.267-23.336-26.735-22.039l-117.955,11.356L653.697,587.498z"/>
		<path fill="#B8D7F2" d="M619.599,526.381c-1.43-0.511-3.248-0.932-4.286,0.178c-0.905,0.966-0.628,2.513-0.204,3.767
			c1.063,3.135,2.7,6.073,4.805,8.628c0.876,1.062,1.899,2.273,1.665,3.631c-0.202,1.174-1.278,1.966-2.28,2.608
			c-4.674,2.995-9.652,5.517-14.832,7.513c-5.988,2.307-12.746,4.285-16.234,9.67c-5.083,7.848-0.234,18.652,6.897,24.699
			c9.798,8.308,23.297,11.352,36.106,10.376c12.81-0.976,25.067-5.631,36.614-11.261c2.847-1.388,5.973-3.222,6.633-6.32
			c0.275-1.293,0.066-2.635-0.145-3.941c-1.035-6.424-2.093-12.926-4.688-18.892C661.577,538.476,636.805,532.524,619.599,526.381z"
			/>
		<path fill="#B8D7F2" d="M700.5,384.5c0,29.547-32.883,40.799-57.697,35.992c-2.133-0.413-4.335-0.998-5.953-2.448
			c-1.65-1.48-2.468-3.657-3.135-5.771c-4.375-13.856-6.178-31.453,1.131-44.679c6.112-11.061,18.016-18.094,30.653-18.094
			C684.83,349.5,700.5,365.17,700.5,384.5z"/>
		<path fill="#EC6174" d="M728.5,504.5c0,0,22.438,6.632,49.219-13.685c0,0,12.872,10.969,6.826,21.827
			c0,0-12.368,17.575-47.207,13.216C737.338,525.858,724.5,518.5,728.5,504.5z"/>
		<g>
			<circle fill="#6166AA" cx="761" cy="512" r="6.5"/>
		</g>
		<g>
			<path fill="#363B72" d="M670.5,536.654c0,0,19,14.354,6.5,48.601c0,0,9.518,7.094,19.009-1.83
				c9.491-8.925,5.905-43.086-2.302-49.005C693.707,534.42,681.5,525.808,670.5,536.654z"/>
		</g>
		<path fill="#1F2242" d="M623.157,330.386c-5.156,2.97-8.293,7.661-5.913,14.752c3.29,9.798,11.312,17.677,20.822,21.724
			c9.51,4.047,20.354,4.443,30.42,2.104c0.858-0.199,1.753-0.418,2.609-0.208c1.064,0.262,1.851,1.128,2.635,1.894
			c2.269,2.217,5.053,3.905,8.068,4.891c-0.936,5.607-1.229,11.322-0.873,16.996c0.173,2.757,0.563,5.667,2.285,7.827
			c1.721,2.16,5.202,3.136,7.296,1.335c2.213-1.903,2.091-5.978,4.783-7.106c-0.378,0.158-0.806,5.666-1.012,6.394
			c-0.533,1.888-1.436,3.677-2.891,5.022c-0.494,0.457-1.048,0.871-1.392,1.449c-0.38,0.636-0.463,1.4-0.522,2.139
			c-0.206,2.583-0.211,5.181-0.017,7.764c0.032,0.428,0.105,0.917,0.468,1.147c0.43,0.272,0.99,0.016,1.423-0.253
			c4.376-2.717,7.849-6.845,9.831-11.594c2.043-4.894,4.048-9.757,4.57-15.104c0.704-7.206-0.739-14.462-2.813-21.399
			c-1.093-3.653-2.398-7.323-4.717-10.351c-3.064-4-7.948-5.709-10.473-9.886c-2.917-4.826-5.078-9.707-9.565-13.388
			c-3.677-3.016-8.193-4.808-12.704-6.315c-7.096-2.372-14.462-4.169-21.944-4.283C637.589,325.845,629.053,326.99,623.157,330.386z
			"/>
		<path fill="none" stroke="#000000" stroke-miterlimit="10" d="M644.762,383.792c-0.291,2.635-1.5,5.16-3.37,7.038
			c-0.157,0.158-0.331,0.34-0.323,0.563c0.009,0.232,0.211,0.404,0.403,0.536c2.303,1.577,5.549,1.634,7.906,0.139"/>
		<path fill="none" stroke="#000000" stroke-miterlimit="10" d="M642.994,400.78c4.338,0.927,8.984,0.343,12.957-1.629"/>
		<path fill="none" stroke="#000000" stroke-miterlimit="10" d="M655.05,381.001c0.034-1.84,2.121-3.179,3.932-2.849
			c1.811,0.33,3.192,1.915,3.787,3.657"/>
		<path fill="#AACCE5" d="M648.707,433.098c0,0,10.793,7.258,34.793,0.33C683.5,433.428,661.913,420.696,648.707,433.098z"/>
		<path fill="none" stroke="#000000" stroke-miterlimit="10" d="M642.167,380.729c-0.174-1.356-1.178-2.571-2.477-2.999
			c-1.299-0.428-2.828-0.047-3.774,0.94"/>
		<g>
			<path fill="#7D84BA" d="M661.5,436.5c0,0,23-2.5,29-13.25c0,0,9,2.446,8.5,9.848c0,0-4.5,17.402-23.5,17.402
				C675.5,450.5,674.5,441.5,661.5,436.5z"/>
		</g>
		<g>
			<path fill="#7D84BA" d="M645.5,425.5c0,0,3,9,16,11c0,0-15,5-12,14c0,0-11.168-8.144-13.584-17.072
				C635.916,433.428,635.5,425.5,645.5,425.5z"/>
		</g>
		<path fill="none" stroke="#7D84BA" stroke-miterlimit="10" d="M661.5,436.5c0,0-1,22,0,40"/>
		<g>
			<circle fill="#474E89" cx="669" cy="450" r="3.5"/>
		</g>
		<g>
			<circle fill="#474E89" cx="669" cy="463" r="3.5"/>
		</g>
		<path fill="#B8D7F2" d="M692.638,380.119c0.744-0.474,1.572-0.9,2.454-0.875c2.125,0.06,3.27,2.549,3.486,4.663
			c0.347,3.384-0.383,6.775-1.109,10.098c-0.398,1.825-0.805,3.672-1.647,5.339c-1.802,3.563-5.66,5.989-9.652,6.07
			c-0.442,0.009-0.931-0.028-1.242-0.343c-0.328-0.333-0.34-0.854-0.329-1.321C684.801,395.026,684.384,385.384,692.638,380.119z"/>
	</g>
</g>
</svg>
